<?xml version="1.0" encoding="UTF-8" standalone="no"?>
<svg
   width="500"
   height="500"
   fill="none"
   version="1.1"
   id="svg6"
   sodipodi:docname="Material_Design_M3_web_favicon.svg"
   inkscape:version="1.2.2 (732a01da63, 2022-12-09)"
   xmlns:inkscape="http://www.inkscape.org/namespaces/inkscape"
   xmlns:sodipodi="http://sodipodi.sourceforge.net/DTD/sodipodi-0.dtd"
   xmlns="http://www.w3.org/2000/svg"
   xmlns:svg="http://www.w3.org/2000/svg">
  <defs
     id="defs10" />
  <sodipodi:namedview
     id="namedview8"
     pagecolor="#ffffff"
     bordercolor="#111111"
     borderopacity="1"
     inkscape:showpageshadow="0"
     inkscape:pageopacity="0"
     inkscape:pagecheckerboard="1"
     inkscape:deskcolor="#d1d1d1"
     showgrid="false"
     inkscape:zoom="0.53980027"
     inkscape:cx="-38.903278"
     inkscape:cy="409.41069"
     inkscape:window-width="1920"
     inkscape:window-height="1009"
     inkscape:window-x="-8"
     inkscape:window-y="-8"
     inkscape:window-maximized="1"
     inkscape:current-layer="svg6" />
  <rect
     width="500"
     height="500"
     rx="150"
     fill="#00639b"
     id="rect2"
     x="0"
     y="0"
     style="stroke-width:7.14286" />
  <path
     d="m 250,421.42857 c -23.63571,0 -45.97143,-4.41428 -67.01429,-13.24286 -20.77857,-9.09285 -38.95714,-21.3 -54.54285,-36.62857 -15.32857,-15.57857 -27.53572,-33.76428 -36.621431,-54.54285 -8.842858,-21.04286 -13.25,-43.37858 -13.25,-67.01429 0,-23.89286 4.414285,-46.23571 13.242857,-67.01429 9.092854,-20.77857 21.300004,-38.82857 36.628574,-54.15714 C 144.02857,113.25 162.20714,101.04286 182.98571,92.207143 204.02857,83.114286 226.36429,78.571429 250,78.571429 c 23.9,0 46.23571,4.542857 67.01429,13.642857 20.77857,8.828574 38.82857,21.035714 54.15714,36.614284 15.58571,15.32857 27.78571,33.37857 36.62143,54.15714 9.09285,20.78572 13.64285,43.12143 13.64285,67.01429 0,23.64286 -4.55,45.97143 -13.64285,67.01429 -8.82857,20.77857 -21.03572,38.96428 -36.62143,54.54285 -15.32857,15.32857 -33.37857,27.53572 -54.15714,36.62857 C 296.22857,417.01429 273.9,421.42857 250,421.42857 Z M 140.90714,337.66429 V 162.33571 a 135.49286,135.49286 0 0 0 -22.97857,40.52143 C 112.47143,217.66429 109.75,233.37857 109.75,250 c 0,16.62143 2.72143,32.46429 8.17857,47.53571 a 136.73571,136.73571 0 0 0 22.98572,40.12858 z M 162.33571,140.90714 H 338.05 A 135.5,135.5 0 0 0 297.53571,117.92143 C 282.46429,112.46429 266.62143,109.74286 250,109.74286 c -16.62143,0 -32.46429,2.72143 -47.52857,8.17857 a 136.73571,136.73571 0 0 0 -40.13572,22.98571 z M 250,288.96429 308.82857,172.07857 H 191.55714 Z m 15.58571,38.95714 h 62.33572 V 203.25 Z m -93.50714,0 h 62.33572 L 172.07857,203.25 Z M 250,390.25714 c 16.61429,0 32.45714,-2.72143 47.52857,-8.17857 15.06429,-5.45714 28.57143,-13.11428 40.51429,-22.98571 H 162.32857 a 136.73571,136.73571 0 0 0 40.13572,22.98571 c 15.06428,5.45714 30.90714,8.17857 47.52857,8.17857 z m 109.08571,-52.59285 a 136.73571,136.73571 0 0 0 22.98572,-40.12858 C 387.52857,282.46429 390.25,266.62143 390.25,250 c 0,-16.62143 -2.72143,-32.33571 -8.17857,-47.14286 -5.45714,-15.07143 -13.11429,-28.57143 -22.98572,-40.52143 z"
     fill="#fbf7ff"
     id="path4"
     style="stroke-width:7.14286" />
</svg>
